<svg width="18" height="18" viewBox="0 0 18 18" fill="none" xmlns="http://www.w3.org/2000/svg">
<path d="M0.867109 0.632891L0.632891 0.867109C0.272585 1.22741 0.240816 1.80102 0.559129 2.19891L5.50024 8.37531C5.79242 8.74052 5.79242 9.25948 5.50024 9.6247L0.559129 15.8011C0.240816 16.199 0.272585 16.7726 0.632891 17.1329L0.867109 17.3671C1.22741 17.7274 1.80102 17.7592 2.19891 17.4409L8.37531 12.4998C8.74052 12.2076 9.25948 12.2076 9.6247 12.4998L15.8011 17.4409C16.199 17.7592 16.7726 17.7274 17.1329 17.3671L17.3671 17.1329C17.7274 16.7726 17.7592 16.199 17.4409 15.8011L12.4998 9.62469C12.2076 9.25948 12.2076 8.74052 12.4998 8.3753L17.4409 2.19891C17.7592 1.80102 17.7274 1.22741 17.3671 0.867109L17.1329 0.632891C16.7726 0.272585 16.199 0.240816 15.8011 0.559129L9.62469 5.50024C9.25948 5.79242 8.74052 5.79242 8.3753 5.50024L2.19891 0.559129C1.80102 0.240816 1.22741 0.272585 0.867109 0.632891Z" fill="white"/>
</svg>
