<svg width="16" height="15" viewBox="0 0 16 15" fill="none" xmlns="http://www.w3.org/2000/svg">
<path d="M7.09749 0.891367C7.45972 0.132245 8.54028 0.132245 8.90251 0.891367L10.3584 3.9424C10.5042 4.24791 10.7946 4.45893 11.1302 4.50317L14.4818 4.94497C15.3157 5.05489 15.6496 6.08257 15.0396 6.66165L12.5878 8.9891C12.3423 9.22215 12.2313 9.56359 12.293 9.89644L12.9085 13.2205C13.0616 14.0476 12.1875 14.6827 11.4482 14.2815L8.47702 12.6689C8.1795 12.5074 7.8205 12.5074 7.52298 12.6689L4.5518 14.2815C3.81255 14.6827 2.93835 14.0476 3.0915 13.2205L3.70702 9.89644C3.76865 9.56359 3.65772 9.22215 3.41221 8.9891L0.960396 6.66165C0.350365 6.08257 0.684276 5.05489 1.51818 4.94497L4.86978 4.50317C5.20538 4.45893 5.49582 4.24791 5.6416 3.9424L7.09749 0.891367Z" fill="#F99D5A"/>
</svg>
