<svg width="175" height="44" viewBox="0 0 175 44" fill="none" xmlns="http://www.w3.org/2000/svg">
<path d="M36.5313 2.21061L60.8422 11.0086C62.624 11.6534 63.8109 13.3452 63.8109 15.2401V28.7599C63.8109 30.6548 62.624 32.3466 60.8422 32.9914L36.5313 41.7894C35.5418 42.1475 34.4582 42.1475 33.4687 41.7894L9.15777 32.9914C7.37604 32.3466 6.18911 30.6548 6.18911 28.7599V15.24C6.18911 13.3452 7.37604 11.6534 9.15777 11.0086L33.4687 2.21061C34.4582 1.85252 35.5418 1.85252 36.5313 2.21061Z" fill="white" stroke="#B9B9EC" stroke-width="3"/>
<path d="M15.99 29C15.6233 29 15.3633 28.76 15.21 28.28L11.51 16.56C11.43 16.3067 11.4667 16.0533 11.62 15.8C11.78 15.5467 12.01 15.42 12.31 15.42C12.47 15.42 12.6233 15.4733 12.77 15.58C12.9167 15.68 13.0233 15.84 13.09 16.06L16.35 26.44H15.91L19.01 16.16C19.0833 15.92 19.2067 15.74 19.38 15.62C19.56 15.5 19.7433 15.44 19.93 15.44C20.13 15.44 20.3233 15.5 20.51 15.62C20.6967 15.74 20.8233 15.92 20.89 16.16L23.99 26.44H23.55L26.81 16.06C26.8833 15.84 26.9867 15.6833 27.12 15.59C27.26 15.49 27.41 15.44 27.57 15.44C27.8633 15.44 28.0967 15.5533 28.27 15.78C28.4433 16.0067 28.4833 16.2667 28.39 16.56L24.69 28.28C24.53 28.76 24.2367 29 23.81 29H23.77C23.3233 29 23.03 28.76 22.89 28.28L19.67 17.86H20.11L16.87 28.28C16.8033 28.52 16.7033 28.7 16.57 28.82C16.4433 28.94 16.25 29 15.99 29ZM31.8302 29C31.2702 29 30.9902 28.72 30.9902 28.16V16.28C30.9902 15.72 31.2702 15.44 31.8302 15.44H39.1902C39.4502 15.44 39.6535 15.5167 39.8002 15.67C39.9535 15.8167 40.0302 16.02 40.0302 16.28C40.0302 16.84 39.7502 17.12 39.1902 17.12H32.6702V21.32H36.6902C37.2502 21.32 37.5302 21.6 37.5302 22.16C37.5302 22.72 37.2502 23 36.6902 23H32.6702V28.16C32.6702 28.72 32.3902 29 31.8302 29ZM40.7066 29C40.1732 29 39.9066 28.7333 39.9066 28.2V27.7C39.9066 27.18 40.1732 26.92 40.7066 26.92H41.1866C41.6932 26.92 41.9466 27.18 41.9466 27.7V28.2C41.9466 28.7333 41.6932 29 41.1866 29H40.7066ZM46.5372 29C45.9772 29 45.6972 28.72 45.6972 28.16V16.28C45.6972 15.72 45.9772 15.44 46.5372 15.44H51.3572C53.0972 15.44 54.3772 15.8533 55.1972 16.68C56.0239 17.5 56.4372 18.78 56.4372 20.52V23.92C56.4372 25.66 56.0272 26.9433 55.2072 27.77C54.3939 28.59 53.1105 29 51.3572 29H46.5372ZM47.3772 27.32H51.3572C52.2105 27.32 52.8839 27.2167 53.3772 27.01C53.8772 26.7967 54.2305 26.4433 54.4372 25.95C54.6505 25.45 54.7572 24.7733 54.7572 23.92V20.52C54.7572 19.6733 54.6505 19.0033 54.4372 18.51C54.2305 18.01 53.8772 17.6533 53.3772 17.44C52.8839 17.2267 52.2105 17.12 51.3572 17.12H47.3772V27.32Z" fill="#B9B9EC"/>
<path d="M72.99 29C72.6233 29 72.3633 28.76 72.21 28.28L68.51 16.56C68.43 16.3067 68.4667 16.0533 68.62 15.8C68.78 15.5467 69.01 15.42 69.31 15.42C69.47 15.42 69.6233 15.4733 69.77 15.58C69.9167 15.68 70.0233 15.84 70.09 16.06L73.35 26.44H72.91L76.01 16.16C76.0833 15.92 76.2067 15.74 76.38 15.62C76.56 15.5 76.7433 15.44 76.93 15.44C77.13 15.44 77.3233 15.5 77.51 15.62C77.6967 15.74 77.8233 15.92 77.89 16.16L80.99 26.44H80.55L83.81 16.06C83.8833 15.84 83.9867 15.6833 84.12 15.59C84.26 15.49 84.41 15.44 84.57 15.44C84.8633 15.44 85.0967 15.5533 85.27 15.78C85.4433 16.0067 85.4833 16.2667 85.39 16.56L81.69 28.28C81.53 28.76 81.2367 29 80.81 29H80.77C80.3233 29 80.03 28.76 79.89 28.28L76.67 17.86H77.11L73.87 28.28C73.8033 28.52 73.7033 28.7 73.57 28.82C73.4433 28.94 73.25 29 72.99 29ZM87.7839 24.62V25.1C87.7839 25.96 87.9406 26.5467 88.2539 26.86C88.5672 27.1667 89.1572 27.32 90.0239 27.32H91.6639C92.3439 27.32 92.8472 27.2567 93.1739 27.13C93.5006 27.0033 93.7172 26.78 93.8239 26.46C93.8972 26.2067 93.9972 26.0133 94.1239 25.88C94.2572 25.7467 94.4572 25.68 94.7239 25.68C95.0039 25.68 95.2172 25.7533 95.3639 25.9C95.5106 26.0467 95.5572 26.26 95.5039 26.54C95.3572 27.3667 94.9639 27.9833 94.3239 28.39C93.6839 28.7967 92.7972 29 91.6639 29H90.0239C88.6972 29 87.7106 28.68 87.0639 28.04C86.4239 27.4 86.1039 26.42 86.1039 25.1V22.78C86.1039 21.4267 86.4239 20.4333 87.0639 19.8C87.7106 19.16 88.6972 18.8467 90.0239 18.86H91.6639C92.9972 18.86 93.9839 19.18 94.6239 19.82C95.2639 20.4533 95.5839 21.44 95.5839 22.78V23.78C95.5839 24.34 95.3039 24.62 94.7439 24.62H87.7839ZM90.0239 20.54C89.1572 20.5267 88.5672 20.6767 88.2539 20.99C87.9406 21.3033 87.7839 21.9 87.7839 22.78V22.94H93.9039V22.78C93.9039 21.9067 93.7472 21.3167 93.4339 21.01C93.1272 20.6967 92.5372 20.54 91.6639 20.54H90.0239ZM100.1 29C99.5397 29 99.2597 28.72 99.2597 28.16V15.76C99.2597 15.2 99.5397 14.92 100.1 14.92C100.66 14.92 100.94 15.2 100.94 15.76V19.93C101.286 19.5767 101.72 19.31 102.24 19.13C102.76 18.95 103.366 18.86 104.06 18.86H104.82C106.153 18.86 107.14 19.18 107.78 19.82C108.42 20.46 108.74 21.4467 108.74 22.78V25.08C108.74 26.4067 108.42 27.3933 107.78 28.04C107.14 28.68 106.153 29 104.82 29H104.06C103.366 29 102.76 28.91 102.24 28.73C101.72 28.55 101.286 28.2867 100.94 27.94V28.16C100.94 28.72 100.66 29 100.1 29ZM104.06 27.32H104.82C105.693 27.32 106.283 27.1633 106.59 26.85C106.903 26.53 107.06 25.94 107.06 25.08V22.78C107.06 21.9067 106.9 21.3167 106.58 21.01C106.266 20.6967 105.68 20.54 104.82 20.54H104.06C103.18 20.54 102.44 20.6533 101.84 20.88C101.24 21.1 100.94 21.4467 100.94 21.92V25.94C100.94 26.4067 101.24 26.7533 101.84 26.98C102.44 27.2067 103.18 27.32 104.06 27.32Z" fill="#B9B9EC"/>
<path d="M113.264 29C112.704 29 112.424 28.72 112.424 28.16V16.28C112.424 15.72 112.704 15.44 113.264 15.44H120.624C120.884 15.44 121.087 15.5167 121.234 15.67C121.387 15.8167 121.464 16.02 121.464 16.28C121.464 16.84 121.184 17.12 120.624 17.12H114.104V21.32H118.124C118.684 21.32 118.964 21.6 118.964 22.16C118.964 22.72 118.684 23 118.124 23H114.104V28.16C114.104 28.72 113.824 29 113.264 29ZM125.571 29C124.244 29 123.257 28.68 122.611 28.04C121.971 27.4 121.651 26.42 121.651 25.1V22.78C121.651 21.44 121.971 20.4533 122.611 19.82C123.257 19.18 124.244 18.86 125.571 18.86H127.211C128.544 18.86 129.531 19.18 130.171 19.82C130.811 20.46 131.131 21.4467 131.131 22.78V25.08C131.131 26.4067 130.811 27.3933 130.171 28.04C129.531 28.68 128.544 29 127.211 29H125.571ZM123.331 25.1C123.331 25.96 123.487 26.5467 123.801 26.86C124.114 27.1667 124.704 27.32 125.571 27.32H127.211C128.084 27.32 128.674 27.1633 128.981 26.85C129.294 26.5367 129.451 25.9467 129.451 25.08V22.78C129.451 21.9067 129.294 21.3167 128.981 21.01C128.674 20.6967 128.084 20.54 127.211 20.54H125.571C124.991 20.54 124.537 20.6067 124.211 20.74C123.891 20.8667 123.664 21.0933 123.531 21.42C123.397 21.74 123.331 22.1933 123.331 22.78V25.1ZM135.647 29C135.087 29 134.807 28.72 134.807 28.16V19.7C134.807 19.14 135.087 18.86 135.647 18.86C136.207 18.86 136.487 19.14 136.487 19.7V20.48C136.88 19.9467 137.38 19.5433 137.987 19.27C138.6 18.9967 139.3 18.86 140.087 18.86C140.647 18.86 140.927 19.14 140.927 19.7C140.927 20.26 140.647 20.54 140.087 20.54C138.933 20.54 138.053 20.7533 137.447 21.18C136.84 21.6067 136.52 22.17 136.487 22.87V28.16C136.487 28.72 136.207 29 135.647 29ZM151.582 18.86C152.142 18.86 152.422 19.14 152.422 19.7V28.16C152.422 28.72 152.142 29 151.582 29C151.022 29 150.742 28.72 150.742 28.16V27.83C150.035 28.61 148.995 29 147.622 29H147.062C145.735 29 144.748 28.68 144.102 28.04C143.462 27.3933 143.142 26.4067 143.142 25.08V19.7C143.142 19.14 143.422 18.86 143.982 18.86C144.542 18.86 144.822 19.14 144.822 19.7V25.08C144.822 25.9467 144.978 26.5367 145.292 26.85C145.612 27.1633 146.202 27.32 147.062 27.32H147.622C148.422 27.32 149.118 27.2267 149.712 27.04C150.312 26.8533 150.655 26.5667 150.742 26.18V19.7C150.742 19.14 151.022 18.86 151.582 18.86ZM167.684 18.86C168.944 18.86 169.847 19.1567 170.394 19.75C170.947 20.3433 171.224 21.3267 171.224 22.7V28.16C171.224 28.72 170.944 29 170.384 29C169.824 29 169.544 28.72 169.544 28.16V22.7C169.544 21.94 169.397 21.39 169.104 21.05C168.817 20.71 168.344 20.54 167.684 20.54H166.864C166.104 20.54 165.561 20.71 165.234 21.05C164.907 21.39 164.744 21.94 164.744 22.7V28.16C164.744 28.72 164.464 29 163.904 29C163.344 29 163.064 28.72 163.064 28.16V22.7C163.064 21.94 162.917 21.39 162.624 21.05C162.337 20.71 161.864 20.54 161.204 20.54H160.384C159.624 20.54 159.081 20.71 158.754 21.05C158.427 21.39 158.264 21.94 158.264 22.7V28.16C158.264 28.72 157.984 29 157.424 29C156.864 29 156.584 28.72 156.584 28.16V19.7C156.584 19.14 156.864 18.86 157.424 18.86C157.984 18.86 158.264 19.14 158.264 19.7V20.16C158.617 19.7 159.004 19.37 159.424 19.17C159.851 18.9633 160.357 18.86 160.944 18.86H161.204C162.031 18.86 162.681 18.9767 163.154 19.21C163.627 19.4367 163.987 19.8067 164.234 20.32C164.587 19.7933 164.961 19.42 165.354 19.2C165.754 18.9733 166.257 18.86 166.864 18.86H167.684Z" fill="#6262D5"/>
</svg>
