<svg width="18" height="20" viewBox="0 0 18 20" fill="none" xmlns="http://www.w3.org/2000/svg">
<circle cx="9" cy="11" r="8" fill="white" stroke="#B9B9EC" stroke-width="2"/>
<path d="M9.284 14.012C8.78 14.012 8.528 13.76 8.528 13.256C8.528 12.62 8.636 12.11 8.852 11.726C9.074 11.342 9.338 11.039 9.644 10.817C9.95 10.595 10.232 10.412 10.49 10.268C10.754 10.112 10.976 9.968 11.156 9.836C11.342 9.704 11.48 9.542 11.57 9.35C11.666 9.158 11.714 8.894 11.714 8.558C11.714 7.844 11.588 7.364 11.336 7.118C11.09 6.866 10.61 6.74 9.896 6.74H8.69C7.982 6.74 7.502 6.869 7.25 7.127C6.998 7.385 6.872 7.862 6.872 8.558C6.872 9.062 6.62 9.314 6.116 9.314C5.612 9.314 5.36 9.062 5.36 8.558C5.36 7.442 5.636 6.608 6.188 6.056C6.74 5.504 7.574 5.228 8.69 5.228H9.896C11.024 5.228 11.861 5.501 12.407 6.047C12.953 6.593 13.226 7.43 13.226 8.558C13.226 9.194 13.115 9.704 12.893 10.088C12.677 10.472 12.416 10.775 12.11 10.997C11.804 11.219 11.522 11.402 11.264 11.546C11 11.702 10.775 11.846 10.589 11.978C10.409 12.11 10.271 12.272 10.175 12.464C10.085 12.656 10.04 12.92 10.04 13.256C10.04 13.76 9.788 14.012 9.284 14.012ZM9.068 17C8.588 17 8.348 16.76 8.348 16.28V15.83C8.348 15.362 8.588 15.128 9.068 15.128H9.5C9.956 15.128 10.184 15.362 10.184 15.83V16.28C10.184 16.76 9.956 17 9.5 17H9.068Z" fill="#B9B9EC"/>
</svg>
