<svg width="18" height="18" viewBox="0 0 18 18" fill="none" xmlns="http://www.w3.org/2000/svg">
<path fill-rule="evenodd" clip-rule="evenodd" d="M17.9876 8.3737C17.9917 8.36139 17.9959 8.34904 18 8.33668C18 8.26919 17.9992 8.2019 17.9977 8.13479C17.9992 8.074 18 8.01305 18 7.95193C18 6.30364 17.4324 4.77249 16.4605 3.50272C14.9313 1.38254 12.3687 0 9.25714 0C9.21412 0 9.17116 0.000264324 9.12828 0.000791268C9.08559 0.000264338 9.04283 0 9 0C4.02944 0 0 3.5602 0 7.95193C0 8.01516 0.00083543 8.07823 0.00249707 8.14111C0.000835387 8.20612 0 8.27131 0 8.33668C0 10.0149 0.66427 11.6207 2.07103 13.027C2.77674 13.7784 3.63601 14.413 4.6063 14.8935C7.30755 16.3953 11.2577 17.4805 16.6154 17.8918C14.4989 16.5056 13.9439 15.4675 14.1591 14.4685C16.3597 13.1059 17.8384 10.8954 17.9876 8.3737Z" fill="#B9B9EC"/>
<circle cx="6" cy="8" r="1" fill="white"/>
<circle cx="9" cy="8" r="1" fill="white"/>
<circle cx="12" cy="8" r="1" fill="white"/>
</svg>
