<svg width="1920" height="1080" viewBox="0 0 1920 1080" fill="none" xmlns="http://www.w3.org/2000/svg">
<rect width="1920" height="1080" fill="white"/>
<rect x="246" y="118.324" width="282.518" height="282.518" rx="141.259" fill="#365092" fill-opacity="0.3"/>
<rect x="541.36" y="259.583" width="205.468" height="205.468" rx="102.734" fill="#B9B9EC" fill-opacity="0.3"/>
<rect x="759.669" y="218.489" width="143.827" height="143.827" rx="71.9137" fill="#6262D5" fill-opacity="0.3"/>
<rect x="885.518" y="547.237" width="205.468" height="205.468" rx="102.734" fill="#365092" fill-opacity="0.3"/>
<rect x="1016.5" y="305.813" width="143.827" height="143.827" rx="71.9137" fill="#365092" fill-opacity="0.3"/>
<rect x="844.424" y="390.568" width="143.827" height="143.827" rx="71.9137" fill="#6262D5" fill-opacity="0.3"/>
<rect x="1173.17" y="203.079" width="205.468" height="205.468" rx="102.734" fill="#6262D5" fill-opacity="0.3"/>
<rect x="1273.32" y="680.41" width="143.827" height="143.827" rx="71.9137" fill="#B9B9EC" fill-opacity="0.3"/>
<rect x="916.338" y="290.403" width="87.3237" height="87.3237" rx="43.6619" fill="#B9B9EC" fill-opacity="0.3"/>
<rect x="1103.83" y="506.144" width="143.827" height="143.827" rx="71.9137" fill="#B9B9EC" fill-opacity="0.3"/>
<rect x="785.353" y="578.058" width="87.3237" height="87.3237" rx="43.6619" fill="#B9B9EC" fill-opacity="0.3"/>
<rect x="1173" y="665" width="87.3237" height="87.3237" rx="43.6619" fill="#365092" fill-opacity="0.3"/>
<rect x="744.259" y="765.547" width="282.518" height="282.518" rx="141.259" fill="#6262D5" fill-opacity="0.3"/>
<rect x="1391.48" y="267.288" width="282.518" height="282.518" rx="141.259" fill="#B9B9EC" fill-opacity="0.3"/>
</svg>
