<svg width="271" height="50" viewBox="0 0 271 50" fill="none" xmlns="http://www.w3.org/2000/svg">
<path d="M57.5313 5.21061L81.8422 14.0086C83.624 14.6534 84.8109 16.3452 84.8109 18.2401V31.7599C84.8109 33.6548 83.624 35.3466 81.8422 35.9914L57.5313 44.7894C56.5418 45.1475 55.4582 45.1475 54.4687 44.7894L30.1578 35.9914C28.376 35.3466 27.1891 33.6548 27.1891 31.7599V18.24C27.1891 16.3452 28.376 14.6534 30.1578 14.0086L54.4687 5.21061C55.4582 4.85252 56.5418 4.85252 57.5313 5.21061Z" fill="white" stroke="#B9B9EC" stroke-width="3"/>
<path d="M36.99 32C36.6233 32 36.3633 31.76 36.21 31.28L32.51 19.56C32.43 19.3067 32.4667 19.0533 32.62 18.8C32.78 18.5467 33.01 18.42 33.31 18.42C33.47 18.42 33.6233 18.4733 33.77 18.58C33.9167 18.68 34.0233 18.84 34.09 19.06L37.35 29.44H36.91L40.01 19.16C40.0833 18.92 40.2067 18.74 40.38 18.62C40.56 18.5 40.7433 18.44 40.93 18.44C41.13 18.44 41.3233 18.5 41.51 18.62C41.6967 18.74 41.8233 18.92 41.89 19.16L44.99 29.44H44.55L47.81 19.06C47.8833 18.84 47.9867 18.6833 48.12 18.59C48.26 18.49 48.41 18.44 48.57 18.44C48.8633 18.44 49.0967 18.5533 49.27 18.78C49.4433 19.0067 49.4833 19.2667 49.39 19.56L45.69 31.28C45.53 31.76 45.2367 32 44.81 32H44.77C44.3233 32 44.03 31.76 43.89 31.28L40.67 20.86H41.11L37.87 31.28C37.8033 31.52 37.7033 31.7 37.57 31.82C37.4433 31.94 37.25 32 36.99 32ZM52.8302 32C52.2702 32 51.9902 31.72 51.9902 31.16V19.28C51.9902 18.72 52.2702 18.44 52.8302 18.44H60.1902C60.4502 18.44 60.6535 18.5167 60.8002 18.67C60.9535 18.8167 61.0302 19.02 61.0302 19.28C61.0302 19.84 60.7502 20.12 60.1902 20.12H53.6702V24.32H57.6902C58.2502 24.32 58.5302 24.6 58.5302 25.16C58.5302 25.72 58.2502 26 57.6902 26H53.6702V31.16C53.6702 31.72 53.3902 32 52.8302 32ZM61.7066 32C61.1732 32 60.9066 31.7333 60.9066 31.2V30.7C60.9066 30.18 61.1732 29.92 61.7066 29.92H62.1866C62.6932 29.92 62.9466 30.18 62.9466 30.7V31.2C62.9466 31.7333 62.6932 32 62.1866 32H61.7066ZM67.5372 32C66.9772 32 66.6972 31.72 66.6972 31.16V19.28C66.6972 18.72 66.9772 18.44 67.5372 18.44H72.3572C74.0972 18.44 75.3772 18.8533 76.1972 19.68C77.0239 20.5 77.4372 21.78 77.4372 23.52V26.92C77.4372 28.66 77.0272 29.9433 76.2072 30.77C75.3939 31.59 74.1105 32 72.3572 32H67.5372ZM68.3772 30.32H72.3572C73.2105 30.32 73.8839 30.2167 74.3772 30.01C74.8772 29.7967 75.2305 29.4433 75.4372 28.95C75.6505 28.45 75.7572 27.7733 75.7572 26.92V23.52C75.7572 22.6733 75.6505 22.0033 75.4372 21.51C75.2305 21.01 74.8772 20.6533 74.3772 20.44C73.8839 20.2267 73.2105 20.12 72.3572 20.12H68.3772V30.32Z" fill="#B9B9EC"/>
<path d="M93.99 32C93.6233 32 93.3633 31.76 93.21 31.28L89.51 19.56C89.43 19.3067 89.4667 19.0533 89.62 18.8C89.78 18.5467 90.01 18.42 90.31 18.42C90.47 18.42 90.6233 18.4733 90.77 18.58C90.9167 18.68 91.0233 18.84 91.09 19.06L94.35 29.44H93.91L97.01 19.16C97.0833 18.92 97.2067 18.74 97.38 18.62C97.56 18.5 97.7433 18.44 97.93 18.44C98.13 18.44 98.3233 18.5 98.51 18.62C98.6967 18.74 98.8233 18.92 98.89 19.16L101.99 29.44H101.55L104.81 19.06C104.883 18.84 104.987 18.6833 105.12 18.59C105.26 18.49 105.41 18.44 105.57 18.44C105.863 18.44 106.097 18.5533 106.27 18.78C106.443 19.0067 106.483 19.2667 106.39 19.56L102.69 31.28C102.53 31.76 102.237 32 101.81 32H101.77C101.323 32 101.03 31.76 100.89 31.28L97.67 20.86H98.11L94.87 31.28C94.8033 31.52 94.7033 31.7 94.57 31.82C94.4433 31.94 94.25 32 93.99 32ZM108.784 27.62V28.1C108.784 28.96 108.941 29.5467 109.254 29.86C109.567 30.1667 110.157 30.32 111.024 30.32H112.664C113.344 30.32 113.847 30.2567 114.174 30.13C114.501 30.0033 114.717 29.78 114.824 29.46C114.897 29.2067 114.997 29.0133 115.124 28.88C115.257 28.7467 115.457 28.68 115.724 28.68C116.004 28.68 116.217 28.7533 116.364 28.9C116.511 29.0467 116.557 29.26 116.504 29.54C116.357 30.3667 115.964 30.9833 115.324 31.39C114.684 31.7967 113.797 32 112.664 32H111.024C109.697 32 108.711 31.68 108.064 31.04C107.424 30.4 107.104 29.42 107.104 28.1V25.78C107.104 24.4267 107.424 23.4333 108.064 22.8C108.711 22.16 109.697 21.8467 111.024 21.86H112.664C113.997 21.86 114.984 22.18 115.624 22.82C116.264 23.4533 116.584 24.44 116.584 25.78V26.78C116.584 27.34 116.304 27.62 115.744 27.62H108.784ZM111.024 23.54C110.157 23.5267 109.567 23.6767 109.254 23.99C108.941 24.3033 108.784 24.9 108.784 25.78V25.94H114.904V25.78C114.904 24.9067 114.747 24.3167 114.434 24.01C114.127 23.6967 113.537 23.54 112.664 23.54H111.024ZM121.1 32C120.54 32 120.26 31.72 120.26 31.16V18.76C120.26 18.2 120.54 17.92 121.1 17.92C121.66 17.92 121.94 18.2 121.94 18.76V22.93C122.286 22.5767 122.72 22.31 123.24 22.13C123.76 21.95 124.366 21.86 125.06 21.86H125.82C127.153 21.86 128.14 22.18 128.78 22.82C129.42 23.46 129.74 24.4467 129.74 25.78V28.08C129.74 29.4067 129.42 30.3933 128.78 31.04C128.14 31.68 127.153 32 125.82 32H125.06C124.366 32 123.76 31.91 123.24 31.73C122.72 31.55 122.286 31.2867 121.94 30.94V31.16C121.94 31.72 121.66 32 121.1 32ZM125.06 30.32H125.82C126.693 30.32 127.283 30.1633 127.59 29.85C127.903 29.53 128.06 28.94 128.06 28.08V25.78C128.06 24.9067 127.9 24.3167 127.58 24.01C127.266 23.6967 126.68 23.54 125.82 23.54H125.06C124.18 23.54 123.44 23.6533 122.84 23.88C122.24 24.1 121.94 24.4467 121.94 24.92V28.94C121.94 29.4067 122.24 29.7533 122.84 29.98C123.44 30.2067 124.18 30.32 125.06 30.32ZM196.578 32C196.044 32 195.778 31.7333 195.778 31.2V30.7C195.778 30.18 196.044 29.92 196.578 29.92H197.058C197.564 29.92 197.818 30.18 197.818 30.7V31.2C197.818 31.7333 197.564 32 197.058 32H196.578ZM202.408 32C201.848 32 201.568 31.72 201.568 31.16V19.28C201.568 18.72 201.848 18.44 202.408 18.44H207.228C208.968 18.44 210.248 18.8533 211.068 19.68C211.895 20.5 212.308 21.78 212.308 23.52V26.92C212.308 28.66 211.898 29.9433 211.078 30.77C210.265 31.59 208.982 32 207.228 32H202.408ZM203.248 30.32H207.228C208.082 30.32 208.755 30.2167 209.248 30.01C209.748 29.7967 210.102 29.4433 210.308 28.95C210.522 28.45 210.628 27.7733 210.628 26.92V23.52C210.628 22.6733 210.522 22.0033 210.308 21.51C210.102 21.01 209.748 20.6533 209.248 20.44C208.755 20.2267 208.082 20.12 207.228 20.12H203.248V30.32ZM216.542 20.22C215.909 20.22 215.592 19.9 215.592 19.26V18.67C215.592 18.0433 215.909 17.73 216.542 17.73H217.122C217.729 17.73 218.032 18.0433 218.032 18.67V19.26C218.032 19.9 217.729 20.22 217.122 20.22H216.542ZM216.822 32C216.262 32 215.982 31.72 215.982 31.16V22.7C215.982 22.14 216.262 21.86 216.822 21.86C217.382 21.86 217.662 22.14 217.662 22.7V31.16C217.662 31.72 217.382 32 216.822 32ZM222.662 36C222.102 36 221.822 35.72 221.822 35.16V22.7C221.822 22.14 222.102 21.86 222.662 21.86C223.222 21.86 223.502 22.14 223.502 22.7V22.95C223.862 22.59 224.306 22.32 224.832 22.14C225.366 21.9533 225.962 21.86 226.622 21.86H227.382C228.716 21.86 229.702 22.18 230.342 22.82C230.982 23.46 231.302 24.4467 231.302 25.78V28.08C231.302 29.4067 230.982 30.3933 230.342 31.04C229.702 31.68 228.716 32 227.382 32H223.502V35.16C223.502 35.72 223.222 36 222.662 36ZM223.502 30.32H227.382C228.256 30.32 228.846 30.1633 229.152 29.85C229.466 29.5367 229.622 28.9467 229.622 28.08V25.78C229.622 24.9067 229.466 24.3167 229.152 24.01C228.846 23.6967 228.256 23.54 227.382 23.54H226.622C225.789 23.54 225.069 23.64 224.462 23.84C223.856 24.04 223.536 24.3567 223.502 24.79V30.32ZM238.006 32C236.986 32 236.226 31.75 235.726 31.25C235.233 30.7433 234.986 29.98 234.986 28.96V18.76C234.986 18.2 235.266 17.92 235.826 17.92C236.386 17.92 236.666 18.2 236.666 18.76V28.96C236.666 29.5 236.753 29.8633 236.926 30.05C237.106 30.23 237.466 30.32 238.006 30.32C238.58 30.32 238.866 30.6 238.866 31.16C238.886 31.72 238.6 32 238.006 32ZM244.891 32C243.564 32 242.578 31.68 241.931 31.04C241.291 30.4 240.971 29.42 240.971 28.1V25.78C240.971 24.44 241.291 23.4533 241.931 22.82C242.578 22.18 243.564 21.86 244.891 21.86H246.531C247.864 21.86 248.851 22.18 249.491 22.82C250.131 23.46 250.451 24.4467 250.451 25.78V28.08C250.451 29.4067 250.131 30.3933 249.491 31.04C248.851 31.68 247.864 32 246.531 32H244.891ZM242.651 28.1C242.651 28.96 242.808 29.5467 243.121 29.86C243.434 30.1667 244.024 30.32 244.891 30.32H246.531C247.404 30.32 247.994 30.1633 248.301 29.85C248.614 29.5367 248.771 28.9467 248.771 28.08V25.78C248.771 24.9067 248.614 24.3167 248.301 24.01C247.994 23.6967 247.404 23.54 246.531 23.54H244.891C244.311 23.54 243.858 23.6067 243.531 23.74C243.211 23.8667 242.984 24.0933 242.851 24.42C242.718 24.74 242.651 25.1933 242.651 25.78V28.1ZM265.227 21.86C266.487 21.86 267.39 22.1567 267.937 22.75C268.49 23.3433 268.767 24.3267 268.767 25.7V31.16C268.767 31.72 268.487 32 267.927 32C267.367 32 267.087 31.72 267.087 31.16V25.7C267.087 24.94 266.94 24.39 266.647 24.05C266.36 23.71 265.887 23.54 265.227 23.54H264.407C263.647 23.54 263.104 23.71 262.777 24.05C262.45 24.39 262.287 24.94 262.287 25.7V31.16C262.287 31.72 262.007 32 261.447 32C260.887 32 260.607 31.72 260.607 31.16V25.7C260.607 24.94 260.46 24.39 260.167 24.05C259.88 23.71 259.407 23.54 258.747 23.54H257.927C257.167 23.54 256.624 23.71 256.297 24.05C255.97 24.39 255.807 24.94 255.807 25.7V31.16C255.807 31.72 255.527 32 254.967 32C254.407 32 254.127 31.72 254.127 31.16V22.7C254.127 22.14 254.407 21.86 254.967 21.86C255.527 21.86 255.807 22.14 255.807 22.7V23.16C256.16 22.7 256.547 22.37 256.967 22.17C257.394 21.9633 257.9 21.86 258.487 21.86H258.747C259.574 21.86 260.224 21.9767 260.697 22.21C261.17 22.4367 261.53 22.8067 261.777 23.32C262.13 22.7933 262.504 22.42 262.897 22.2C263.297 21.9733 263.8 21.86 264.407 21.86H265.227Z" fill="#B9B9EC"/>
<path d="M134.264 32C133.704 32 133.424 31.72 133.424 31.16V19.28C133.424 18.72 133.704 18.44 134.264 18.44H141.624C141.884 18.44 142.087 18.5167 142.234 18.67C142.387 18.8167 142.464 19.02 142.464 19.28C142.464 19.84 142.184 20.12 141.624 20.12H135.104V24.32H139.124C139.684 24.32 139.964 24.6 139.964 25.16C139.964 25.72 139.684 26 139.124 26H135.104V31.16C135.104 31.72 134.824 32 134.264 32ZM146.571 32C145.244 32 144.257 31.68 143.611 31.04C142.971 30.4 142.651 29.42 142.651 28.1V25.78C142.651 24.44 142.971 23.4533 143.611 22.82C144.257 22.18 145.244 21.86 146.571 21.86H148.211C149.544 21.86 150.531 22.18 151.171 22.82C151.811 23.46 152.131 24.4467 152.131 25.78V28.08C152.131 29.4067 151.811 30.3933 151.171 31.04C150.531 31.68 149.544 32 148.211 32H146.571ZM144.331 28.1C144.331 28.96 144.487 29.5467 144.801 29.86C145.114 30.1667 145.704 30.32 146.571 30.32H148.211C149.084 30.32 149.674 30.1633 149.981 29.85C150.294 29.5367 150.451 28.9467 150.451 28.08V25.78C150.451 24.9067 150.294 24.3167 149.981 24.01C149.674 23.6967 149.084 23.54 148.211 23.54H146.571C145.991 23.54 145.537 23.6067 145.211 23.74C144.891 23.8667 144.664 24.0933 144.531 24.42C144.397 24.74 144.331 25.1933 144.331 25.78V28.1ZM156.647 32C156.087 32 155.807 31.72 155.807 31.16V22.7C155.807 22.14 156.087 21.86 156.647 21.86C157.207 21.86 157.487 22.14 157.487 22.7V23.48C157.88 22.9467 158.38 22.5433 158.987 22.27C159.6 21.9967 160.3 21.86 161.087 21.86C161.647 21.86 161.927 22.14 161.927 22.7C161.927 23.26 161.647 23.54 161.087 23.54C159.933 23.54 159.053 23.7533 158.447 24.18C157.84 24.6067 157.52 25.17 157.487 25.87V31.16C157.487 31.72 157.207 32 156.647 32ZM172.582 21.86C173.142 21.86 173.422 22.14 173.422 22.7V31.16C173.422 31.72 173.142 32 172.582 32C172.022 32 171.742 31.72 171.742 31.16V30.83C171.035 31.61 169.995 32 168.622 32H168.062C166.735 32 165.748 31.68 165.102 31.04C164.462 30.3933 164.142 29.4067 164.142 28.08V22.7C164.142 22.14 164.422 21.86 164.982 21.86C165.542 21.86 165.822 22.14 165.822 22.7V28.08C165.822 28.9467 165.978 29.5367 166.292 29.85C166.612 30.1633 167.202 30.32 168.062 30.32H168.622C169.422 30.32 170.118 30.2267 170.712 30.04C171.312 29.8533 171.655 29.5667 171.742 29.18V22.7C171.742 22.14 172.022 21.86 172.582 21.86ZM188.684 21.86C189.944 21.86 190.847 22.1567 191.394 22.75C191.947 23.3433 192.224 24.3267 192.224 25.7V31.16C192.224 31.72 191.944 32 191.384 32C190.824 32 190.544 31.72 190.544 31.16V25.7C190.544 24.94 190.397 24.39 190.104 24.05C189.817 23.71 189.344 23.54 188.684 23.54H187.864C187.104 23.54 186.561 23.71 186.234 24.05C185.907 24.39 185.744 24.94 185.744 25.7V31.16C185.744 31.72 185.464 32 184.904 32C184.344 32 184.064 31.72 184.064 31.16V25.7C184.064 24.94 183.917 24.39 183.624 24.05C183.337 23.71 182.864 23.54 182.204 23.54H181.384C180.624 23.54 180.081 23.71 179.754 24.05C179.427 24.39 179.264 24.94 179.264 25.7V31.16C179.264 31.72 178.984 32 178.424 32C177.864 32 177.584 31.72 177.584 31.16V22.7C177.584 22.14 177.864 21.86 178.424 21.86C178.984 21.86 179.264 22.14 179.264 22.7V23.16C179.617 22.7 180.004 22.37 180.424 22.17C180.851 21.9633 181.357 21.86 181.944 21.86H182.204C183.031 21.86 183.681 21.9767 184.154 22.21C184.627 22.4367 184.987 22.8067 185.234 23.32C185.587 22.7933 185.961 22.42 186.354 22.2C186.754 21.9733 187.257 21.86 187.864 21.86H188.684Z" fill="#6262D5"/>
</svg>
